<svg width="16" height="20" viewBox="0 0 16 20" fill="none" xmlns="http://www.w3.org/2000/svg">
<g clip-path="url(#clip0_348_102)">
<mask id="mask0_348_102" style="mask-type:luminance" maskUnits="userSpaceOnUse" x="0" y="0" width="16" height="20">
<path d="M15.9889 0H0V19.996H15.9889V0Z" fill="white"/>
</mask>
<g mask="url(#mask0_348_102)">
<path d="M3.99723 5.9988H5.99584V2.9994H3.99723V5.9988ZM3.99723 14.997H5.99584V9.998H3.99723V14.997ZM1.99861 19.996C1.44899 19.996 0.978488 19.8002 0.587092 19.4086C0.195697 19.017 0 18.5463 0 17.9964V8.9982H15.9889V17.9964C15.9889 18.5463 15.7932 19.017 15.4018 19.4086C15.0104 19.8002 14.5399 19.996 13.9903 19.996H1.99861ZM0 6.9986V1.9996C0 1.44971 0.195697 0.978971 0.587092 0.587382C0.978488 0.195794 1.44899 0 1.99861 0H13.9903C14.5399 0 15.0104 0.195794 15.4018 0.587382C15.7932 0.978971 15.9889 1.44971 15.9889 1.9996V6.9986H0Z" fill="#8192AB"/>
</g>
</g>
<defs>
<clipPath id="clip0_348_102">
<rect width="16" height="20" fill="white"/>
</clipPath>
</defs>
</svg>
