<svg width="16" height="16" viewBox="0 0 16 16" fill="none" xmlns="http://www.w3.org/2000/svg">
<g clip-path="url(#clip0_83_1100)">
<path d="M14.4765 11.9916L9.14688 2.66472C9.03067 2.45967 8.86214 2.28911 8.6585 2.17044C8.45485 2.05178 8.22338 1.98926 7.98768 1.98926C7.75199 1.98926 7.52051 2.05178 7.31686 2.17044C7.11322 2.28911 6.9447 2.45967 6.82849 2.66472L1.49885 11.9916C1.38139 12.195 1.3198 12.4259 1.32032 12.6608C1.32084 12.8957 1.38345 13.1263 1.50181 13.3292C1.62018 13.5321 1.79008 13.7001 1.99431 13.8162C2.19853 13.9323 2.42981 13.9923 2.66471 13.9902H13.324C13.5577 13.99 13.7873 13.9282 13.9897 13.8112C14.1921 13.6941 14.3601 13.5259 14.4769 13.3234C14.5936 13.1209 14.6551 12.8912 14.655 12.6574C14.655 12.4237 14.5934 12.194 14.4765 11.9916Z" stroke="#475569" stroke-width="1.33241" stroke-linecap="round" stroke-linejoin="round"/>
<path d="M7.99438 5.99561V8.66042" stroke="#475569" stroke-width="1.33241" stroke-linecap="round" stroke-linejoin="round"/>
<path d="M7.99438 11.3257H8.00105" stroke="#475569" stroke-width="1.33241" stroke-linecap="round" stroke-linejoin="round"/>
</g>
<defs>
<clipPath id="clip0_83_1100">
<rect width="15.9889" height="15.9889" fill="white"/>
</clipPath>
</defs>
</svg>
