<svg width="16" height="16" viewBox="0 0 16 16" fill="none" xmlns="http://www.w3.org/2000/svg">
<path d="M7.32817 14.4768C7.53072 14.5938 7.76049 14.6553 7.99437 14.6553C8.22826 14.6553 8.45803 14.5938 8.66058 14.4768L13.324 11.812C13.5264 11.6952 13.6944 11.5272 13.8114 11.3249C13.9283 11.1226 13.99 10.8931 13.9902 10.6595V5.32984C13.99 5.09619 13.9283 4.8667 13.8114 4.66441C13.6944 4.46212 13.5264 4.29414 13.324 4.17731L8.66058 1.51249C8.45803 1.39555 8.22826 1.33398 7.99437 1.33398C7.76049 1.33398 7.53072 1.39555 7.32817 1.51249L2.66474 4.17731C2.46239 4.29414 2.29432 4.46212 2.17739 4.66441C2.06045 4.8667 1.99877 5.09619 1.99854 5.32984V10.6595C1.99877 10.8931 2.06045 11.1226 2.17739 11.3249C2.29432 11.5272 2.46239 11.6952 2.66474 11.812L7.32817 14.4768Z" stroke="#475569" stroke-width="1.33241" stroke-linecap="round" stroke-linejoin="round"/>
<path d="M7.99438 14.6567V7.99463" stroke="#475569" stroke-width="1.33241" stroke-linecap="round" stroke-linejoin="round"/>
<path d="M2.19189 4.66357L7.99453 7.99459L13.7972 4.66357" stroke="#475569" stroke-width="1.33241" stroke-linecap="round" stroke-linejoin="round"/>
<path d="M4.99658 2.84473L10.9924 6.27568" stroke="#475569" stroke-width="1.33241" stroke-linecap="round" stroke-linejoin="round"/>
</svg>
