<svg width="24" height="24" viewBox="0 0 24 24" fill="none" xmlns="http://www.w3.org/2000/svg">
<path d="M9.99307 19.9861L8.74394 17.4878L5.99585 17.9874" stroke="#0891B2" stroke-width="1.99861" stroke-linecap="round" stroke-linejoin="round"/>
<path d="M9.99307 3.99707L8.74394 6.49533L5.99585 5.99568" stroke="#0891B2" stroke-width="1.99861" stroke-linecap="round" stroke-linejoin="round"/>
<path d="M13.9902 19.9861L15.2394 17.4878L17.9875 17.9874" stroke="#0891B2" stroke-width="1.99861" stroke-linecap="round" stroke-linejoin="round"/>
<path d="M13.9902 3.99707L15.2394 6.49533L17.9875 5.99568" stroke="#0891B2" stroke-width="1.99861" stroke-linecap="round" stroke-linejoin="round"/>
<path d="M16.9883 20.9856L13.9904 14.9897H9.99316" stroke="#0891B2" stroke-width="1.99861" stroke-linecap="round" stroke-linejoin="round"/>
<path d="M16.9881 2.99805L13.9902 8.99387L15.4892 11.9918" stroke="#0891B2" stroke-width="1.99861" stroke-linecap="round" stroke-linejoin="round"/>
<path d="M1.99854 11.9916H8.49401L9.99297 8.99365" stroke="#0891B2" stroke-width="1.99861" stroke-linecap="round" stroke-linejoin="round"/>
<path d="M19.986 9.99316L18.4871 11.9918L19.986 13.9904" stroke="#0891B2" stroke-width="1.99861" stroke-linecap="round" stroke-linejoin="round"/>
<path d="M21.9847 11.9917H15.4892L13.9902 14.9896" stroke="#0891B2" stroke-width="1.99861" stroke-linecap="round" stroke-linejoin="round"/>
<path d="M3.99731 9.99316L5.49627 11.9918L3.99731 13.9904" stroke="#0891B2" stroke-width="1.99861" stroke-linecap="round" stroke-linejoin="round"/>
<path d="M6.99512 20.9854L9.99303 14.9896L8.49407 11.9917" stroke="#0891B2" stroke-width="1.99861" stroke-linecap="round" stroke-linejoin="round"/>
<path d="M6.99512 2.99805L9.99303 8.99387H13.9902" stroke="#0891B2" stroke-width="1.99861" stroke-linecap="round" stroke-linejoin="round"/>
</svg>
